<svg xmlns="http://www.w3.org/2000/svg"
     width="270"
     height="240"
     >
<!-- blank -->
<!-- blank -->
<!-- blank -->
<!-- blank -->
<!-- blank -->
<!-- blank -->
<!-- blank -->
<!-- blank -->
<!-- blank -->
<!-- blank -->
<!-- blank -->
<rect x="120" y="10" width="10" height="10" fill="black"/><!-- 0 -->
<rect x="130" y="10" width="10" height="10" fill="black"/><!-- 0 -->
<rect x="140" y="10" width="10" height="10" fill="black"/><!-- 0 -->
<rect x="150" y="10" width="10" height="10" fill="black"/><!-- 0 -->
<rect x="160" y="10" width="10" height="10" fill="black"/><!-- 0 -->
<!-- blank -->
<!-- blank -->
<!-- blank -->
<!-- blank -->
<!-- blank -->
<!-- blank -->
<!-- blank -->
<!-- blank -->
<!-- blank -->
<!-- blank -->

<!-- blank -->
<!-- blank -->
<!-- blank -->
<!-- blank -->
<!-- blank -->
<!-- blank -->
<!-- blank -->
<rect x="80" y="20" width="10" height="10" fill="black"/><!-- 0 -->
<rect x="90" y="20" width="10" height="10" fill="black"/><!-- 0 -->
<rect x="100" y="20" width="10" height="10" fill="black"/><!-- 0 -->
<rect x="110" y="20" width="10" height="10" fill="black"/><!-- 0 -->
<rect x="120" y="20" width="10" height="10" fill="black"/><!-- 0 -->
<rect x="130" y="20" width="10" height="10" fill="green"/><!-- 2 -->
<rect x="140" y="20" width="10" height="10" fill="black"/><!-- 0 -->
<rect x="150" y="20" width="10" height="10" fill="green"/><!-- 2 -->
<rect x="160" y="20" width="10" height="10" fill="black"/><!-- 0 -->
<!-- blank -->
<!-- blank -->
<!-- blank -->
<!-- blank -->
<!-- blank -->
<!-- blank -->
<!-- blank -->
<!-- blank -->
<!-- blank -->
<!-- blank -->

<!-- blank -->
<!-- blank -->
<!-- blank -->
<!-- blank -->
<!-- blank -->
<!-- blank -->
<!-- blank -->
<rect x="80" y="30" width="10" height="10" fill="black"/><!-- 0 -->
<rect x="90" y="30" width="10" height="10" fill="yellow"/><!-- 3 -->
<rect x="100" y="30" width="10" height="10" fill="yellow"/><!-- 3 -->
<rect x="110" y="30" width="10" height="10" fill="green"/><!-- 2 -->
<rect x="120" y="30" width="10" height="10" fill="black"/><!-- 0 -->
<rect x="130" y="30" width="10" height="10" fill="green"/><!-- 2 -->
<rect x="140" y="30" width="10" height="10" fill="green"/><!-- 2 -->
<rect x="150" y="30" width="10" height="10" fill="black"/><!-- 0 -->
<rect x="160" y="30" width="10" height="10" fill="black"/><!-- 0 -->
<!-- blank -->
<!-- blank -->
<!-- blank -->
<!-- blank -->
<!-- blank -->
<!-- blank -->
<!-- blank -->
<!-- blank -->
<!-- blank -->
<!-- blank -->

<!-- blank -->
<!-- blank -->
<!-- blank -->
<!-- blank -->
<!-- blank -->
<!-- blank -->
<!-- blank -->
<rect x="80" y="40" width="10" height="10" fill="black"/><!-- 0 -->
<rect x="90" y="40" width="10" height="10" fill="black"/><!-- 0 -->
<rect x="100" y="40" width="10" height="10" fill="black"/><!-- 0 -->
<rect x="110" y="40" width="10" height="10" fill="black"/><!-- 0 -->
<rect x="120" y="40" width="10" height="10" fill="black"/><!-- 0 -->
<rect x="130" y="40" width="10" height="10" fill="black"/><!-- 0 -->
<rect x="140" y="40" width="10" height="10" fill="black"/><!-- 0 -->
<rect x="150" y="40" width="10" height="10" fill="black"/><!-- 0 -->
<rect x="160" y="40" width="10" height="10" fill="black"/><!-- 0 -->
<rect x="170" y="40" width="10" height="10" fill="black"/><!-- 0 -->
<rect x="180" y="40" width="10" height="10" fill="black"/><!-- 0 -->
<rect x="190" y="40" width="10" height="10" fill="black"/><!-- 0 -->
<rect x="200" y="40" width="10" height="10" fill="black"/><!-- 0 -->
<!-- blank -->
<!-- blank -->
<!-- blank -->
<!-- blank -->
<!-- blank -->
<!-- blank -->

<!-- blank -->
<!-- blank -->
<!-- blank -->
<!-- blank -->
<!-- blank -->
<!-- blank -->
<!-- blank -->
<!-- blank -->
<!-- blank -->
<!-- blank -->
<!-- blank -->
<rect x="120" y="50" width="10" height="10" fill="black"/><!-- 0 -->
<rect x="130" y="50" width="10" height="10" fill="black"/><!-- 0 -->
<rect x="140" y="50" width="10" height="10" fill="green"/><!-- 2 -->
<rect x="150" y="50" width="10" height="10" fill="black"/><!-- 0 -->
<rect x="160" y="50" width="10" height="10" fill="black"/><!-- 0 -->
<rect x="170" y="50" width="10" height="10" fill="white"/><!-- 7 -->
<rect x="180" y="50" width="10" height="10" fill="white"/><!-- 7 -->
<rect x="190" y="50" width="10" height="10" fill="green"/><!-- 2 -->
<rect x="200" y="50" width="10" height="10" fill="black"/><!-- 0 -->
<rect x="210" y="50" width="10" height="10" fill="black"/><!-- 0 -->
<rect x="220" y="50" width="10" height="10" fill="black"/><!-- 0 -->
<!-- blank -->
<!-- blank -->
<!-- blank -->
<!-- blank -->

<!-- blank -->
<!-- blank -->
<!-- blank -->
<!-- blank -->
<!-- blank -->
<!-- blank -->
<!-- blank -->
<!-- blank -->
<!-- blank -->
<rect x="100" y="60" width="10" height="10" fill="black"/><!-- 0 -->
<rect x="110" y="60" width="10" height="10" fill="black"/><!-- 0 -->
<rect x="120" y="60" width="10" height="10" fill="black"/><!-- 0 -->
<rect x="130" y="60" width="10" height="10" fill="white"/><!-- 7 -->
<rect x="140" y="60" width="10" height="10" fill="yellow"/><!-- 3 -->
<rect x="150" y="60" width="10" height="10" fill="yellow"/><!-- 3 -->
<rect x="160" y="60" width="10" height="10" fill="green"/><!-- 2 -->
<rect x="170" y="60" width="10" height="10" fill="black"/><!-- 0 -->
<rect x="180" y="60" width="10" height="10" fill="black"/><!-- 0 -->
<rect x="190" y="60" width="10" height="10" fill="black"/><!-- 0 -->
<rect x="200" y="60" width="10" height="10" fill="yellow"/><!-- 3 -->
<rect x="210" y="60" width="10" height="10" fill="yellow"/><!-- 3 -->
<rect x="220" y="60" width="10" height="10" fill="black"/><!-- 0 -->
<!-- blank -->
<!-- blank -->
<!-- blank -->
<!-- blank -->

<rect x="10" y="70" width="10" height="10" fill="black"/><!-- 0 -->
<rect x="20" y="70" width="10" height="10" fill="black"/><!-- 0 -->
<rect x="30" y="70" width="10" height="10" fill="black"/><!-- 0 -->
<rect x="40" y="70" width="10" height="10" fill="black"/><!-- 0 -->
<rect x="50" y="70" width="10" height="10" fill="black"/><!-- 0 -->
<rect x="60" y="70" width="10" height="10" fill="black"/><!-- 0 -->
<rect x="70" y="70" width="10" height="10" fill="black"/><!-- 0 -->
<rect x="80" y="70" width="10" height="10" fill="black"/><!-- 0 -->
<rect x="90" y="70" width="10" height="10" fill="black"/><!-- 0 -->
<rect x="100" y="70" width="10" height="10" fill="black"/><!-- 0 -->
<rect x="110" y="70" width="10" height="10" fill="yellow"/><!-- 3 -->
<rect x="120" y="70" width="10" height="10" fill="black"/><!-- 0 -->
<rect x="130" y="70" width="10" height="10" fill="yellow"/><!-- 3 -->
<rect x="140" y="70" width="10" height="10" fill="yellow"/><!-- 3 -->
<rect x="150" y="70" width="10" height="10" fill="yellow"/><!-- 3 -->
<rect x="160" y="70" width="10" height="10" fill="yellow"/><!-- 3 -->
<rect x="170" y="70" width="10" height="10" fill="green"/><!-- 2 -->
<rect x="180" y="70" width="10" height="10" fill="green"/><!-- 2 -->
<rect x="190" y="70" width="10" height="10" fill="green"/><!-- 2 -->
<rect x="200" y="70" width="10" height="10" fill="green"/><!-- 2 -->
<rect x="210" y="70" width="10" height="10" fill="green"/><!-- 2 -->
<rect x="220" y="70" width="10" height="10" fill="black"/><!-- 0 -->
<!-- blank -->
<!-- blank -->
<!-- blank -->
<!-- blank -->

<rect x="10" y="80" width="10" height="10" fill="black"/><!-- 0 -->
<rect x="20" y="80" width="10" height="10" fill="white"/><!-- 7 -->
<rect x="30" y="80" width="10" height="10" fill="yellow"/><!-- 3 -->
<rect x="40" y="80" width="10" height="10" fill="green"/><!-- 2 -->
<rect x="50" y="80" width="10" height="10" fill="yellow"/><!-- 3 -->
<rect x="60" y="80" width="10" height="10" fill="yellow"/><!-- 3 -->
<rect x="70" y="80" width="10" height="10" fill="yellow"/><!-- 3 -->
<rect x="80" y="80" width="10" height="10" fill="yellow"/><!-- 3 -->
<rect x="90" y="80" width="10" height="10" fill="yellow"/><!-- 3 -->
<rect x="100" y="80" width="10" height="10" fill="black"/><!-- 0 -->
<rect x="110" y="80" width="10" height="10" fill="yellow"/><!-- 3 -->
<rect x="120" y="80" width="10" height="10" fill="black"/><!-- 0 -->
<rect x="130" y="80" width="10" height="10" fill="yellow"/><!-- 3 -->
<rect x="140" y="80" width="10" height="10" fill="yellow"/><!-- 3 -->
<rect x="150" y="80" width="10" height="10" fill="yellow"/><!-- 3 -->
<rect x="160" y="80" width="10" height="10" fill="yellow"/><!-- 3 -->
<rect x="170" y="80" width="10" height="10" fill="yellow"/><!-- 3 -->
<rect x="180" y="80" width="10" height="10" fill="yellow"/><!-- 3 -->
<rect x="190" y="80" width="10" height="10" fill="yellow"/><!-- 3 -->
<rect x="200" y="80" width="10" height="10" fill="yellow"/><!-- 3 -->
<rect x="210" y="80" width="10" height="10" fill="yellow"/><!-- 3 -->
<rect x="220" y="80" width="10" height="10" fill="black"/><!-- 0 -->
<!-- blank -->
<!-- blank -->
<!-- blank -->
<!-- blank -->

<rect x="10" y="90" width="10" height="10" fill="black"/><!-- 0 -->
<rect x="20" y="90" width="10" height="10" fill="black"/><!-- 0 -->
<rect x="30" y="90" width="10" height="10" fill="black"/><!-- 0 -->
<rect x="40" y="90" width="10" height="10" fill="black"/><!-- 0 -->
<rect x="50" y="90" width="10" height="10" fill="black"/><!-- 0 -->
<rect x="60" y="90" width="10" height="10" fill="black"/><!-- 0 -->
<rect x="70" y="90" width="10" height="10" fill="black"/><!-- 0 -->
<rect x="80" y="90" width="10" height="10" fill="black"/><!-- 0 -->
<rect x="90" y="90" width="10" height="10" fill="black"/><!-- 0 -->
<rect x="100" y="90" width="10" height="10" fill="black"/><!-- 0 -->
<rect x="110" y="90" width="10" height="10" fill="green"/><!-- 2 -->
<rect x="120" y="90" width="10" height="10" fill="black"/><!-- 0 -->
<rect x="130" y="90" width="10" height="10" fill="green"/><!-- 2 -->
<rect x="140" y="90" width="10" height="10" fill="green"/><!-- 2 -->
<rect x="150" y="90" width="10" height="10" fill="green"/><!-- 2 -->
<rect x="160" y="90" width="10" height="10" fill="black"/><!-- 0 -->
<rect x="170" y="90" width="10" height="10" fill="green"/><!-- 2 -->
<rect x="180" y="90" width="10" height="10" fill="black"/><!-- 0 -->
<rect x="190" y="90" width="10" height="10" fill="green"/><!-- 2 -->
<rect x="200" y="90" width="10" height="10" fill="green"/><!-- 2 -->
<rect x="210" y="90" width="10" height="10" fill="green"/><!-- 2 -->
<rect x="220" y="90" width="10" height="10" fill="black"/><!-- 0 -->
<!-- blank -->
<!-- blank -->
<!-- blank -->
<!-- blank -->

<!-- blank -->
<!-- blank -->
<!-- blank -->
<!-- blank -->
<rect x="50" y="100" width="10" height="10" fill="black"/><!-- 0 -->
<rect x="60" y="100" width="10" height="10" fill="black"/><!-- 0 -->
<rect x="70" y="100" width="10" height="10" fill="yellow"/><!-- 3 -->
<rect x="80" y="100" width="10" height="10" fill="green"/><!-- 2 -->
<rect x="90" y="100" width="10" height="10" fill="green"/><!-- 2 -->
<rect x="100" y="100" width="10" height="10" fill="black"/><!-- 0 -->
<rect x="110" y="100" width="10" height="10" fill="green"/><!-- 2 -->
<rect x="120" y="100" width="10" height="10" fill="black"/><!-- 0 -->
<rect x="130" y="100" width="10" height="10" fill="green"/><!-- 2 -->
<rect x="140" y="100" width="10" height="10" fill="green"/><!-- 2 -->
<rect x="150" y="100" width="10" height="10" fill="green"/><!-- 2 -->
<rect x="160" y="100" width="10" height="10" fill="yellow"/><!-- 3 -->
<rect x="170" y="100" width="10" height="10" fill="green"/><!-- 2 -->
<rect x="180" y="100" width="10" height="10" fill="yellow"/><!-- 3 -->
<rect x="190" y="100" width="10" height="10" fill="green"/><!-- 2 -->
<rect x="200" y="100" width="10" height="10" fill="green"/><!-- 2 -->
<rect x="210" y="100" width="10" height="10" fill="green"/><!-- 2 -->
<rect x="220" y="100" width="10" height="10" fill="black"/><!-- 0 -->
<rect x="230" y="100" width="10" height="10" fill="black"/><!-- 0 -->
<rect x="240" y="100" width="10" height="10" fill="black"/><!-- 0 -->
<!-- blank -->
<!-- blank -->

<!-- blank -->
<!-- blank -->
<!-- blank -->
<!-- blank -->
<rect x="50" y="110" width="10" height="10" fill="black"/><!-- 0 -->
<rect x="60" y="110" width="10" height="10" fill="yellow"/><!-- 3 -->
<rect x="70" y="110" width="10" height="10" fill="black"/><!-- 0 -->
<rect x="80" y="110" width="10" height="10" fill="black"/><!-- 0 -->
<rect x="90" y="110" width="10" height="10" fill="black"/><!-- 0 -->
<rect x="100" y="110" width="10" height="10" fill="black"/><!-- 0 -->
<rect x="110" y="110" width="10" height="10" fill="black"/><!-- 0 -->
<rect x="120" y="110" width="10" height="10" fill="black"/><!-- 0 -->
<rect x="130" y="110" width="10" height="10" fill="green"/><!-- 2 -->
<rect x="140" y="110" width="10" height="10" fill="green"/><!-- 2 -->
<rect x="150" y="110" width="10" height="10" fill="green"/><!-- 2 -->
<rect x="160" y="110" width="10" height="10" fill="green"/><!-- 2 -->
<rect x="170" y="110" width="10" height="10" fill="green"/><!-- 2 -->
<rect x="180" y="110" width="10" height="10" fill="green"/><!-- 2 -->
<rect x="190" y="110" width="10" height="10" fill="green"/><!-- 2 -->
<rect x="200" y="110" width="10" height="10" fill="green"/><!-- 2 -->
<rect x="210" y="110" width="10" height="10" fill="green"/><!-- 2 -->
<rect x="220" y="110" width="10" height="10" fill="black"/><!-- 0 -->
<rect x="230" y="110" width="10" height="10" fill="yellow"/><!-- 3 -->
<rect x="240" y="110" width="10" height="10" fill="black"/><!-- 0 -->
<rect x="250" y="110" width="10" height="10" fill="black"/><!-- 0 -->
<!-- blank -->

<!-- blank -->
<!-- blank -->
<!-- blank -->
<!-- blank -->
<rect x="50" y="120" width="10" height="10" fill="black"/><!-- 0 -->
<rect x="60" y="120" width="10" height="10" fill="black"/><!-- 0 -->
<rect x="70" y="120" width="10" height="10" fill="black"/><!-- 0 -->
<rect x="80" y="120" width="10" height="10" fill="black"/><!-- 0 -->
<rect x="90" y="120" width="10" height="10" fill="black"/><!-- 0 -->
<rect x="100" y="120" width="10" height="10" fill="yellow"/><!-- 3 -->
<rect x="110" y="120" width="10" height="10" fill="black"/><!-- 0 -->
<rect x="120" y="120" width="10" height="10" fill="black"/><!-- 0 -->
<rect x="130" y="120" width="10" height="10" fill="black"/><!-- 0 -->
<rect x="140" y="120" width="10" height="10" fill="black"/><!-- 0 -->
<rect x="150" y="120" width="10" height="10" fill="black"/><!-- 0 -->
<rect x="160" y="120" width="10" height="10" fill="black"/><!-- 0 -->
<rect x="170" y="120" width="10" height="10" fill="black"/><!-- 0 -->
<rect x="180" y="120" width="10" height="10" fill="black"/><!-- 0 -->
<rect x="190" y="120" width="10" height="10" fill="black"/><!-- 0 -->
<rect x="200" y="120" width="10" height="10" fill="black"/><!-- 0 -->
<rect x="210" y="120" width="10" height="10" fill="black"/><!-- 0 -->
<rect x="220" y="120" width="10" height="10" fill="black"/><!-- 0 -->
<rect x="230" y="120" width="10" height="10" fill="black"/><!-- 0 -->
<rect x="240" y="120" width="10" height="10" fill="green"/><!-- 2 -->
<rect x="250" y="120" width="10" height="10" fill="black"/><!-- 0 -->
<!-- blank -->

<!-- blank -->
<!-- blank -->
<!-- blank -->
<!-- blank -->
<rect x="50" y="130" width="10" height="10" fill="black"/><!-- 0 -->
<rect x="60" y="130" width="10" height="10" fill="black"/><!-- 0 -->
<rect x="70" y="130" width="10" height="10" fill="white"/><!-- 7 -->
<rect x="80" y="130" width="10" height="10" fill="yellow"/><!-- 3 -->
<rect x="90" y="130" width="10" height="10" fill="yellow"/><!-- 3 -->
<rect x="100" y="130" width="10" height="10" fill="green"/><!-- 2 -->
<rect x="110" y="130" width="10" height="10" fill="yellow"/><!-- 3 -->
<rect x="120" y="130" width="10" height="10" fill="green"/><!-- 2 -->
<rect x="130" y="130" width="10" height="10" fill="yellow"/><!-- 3 -->
<rect x="140" y="130" width="10" height="10" fill="green"/><!-- 2 -->
<rect x="150" y="130" width="10" height="10" fill="green"/><!-- 2 -->
<rect x="160" y="130" width="10" height="10" fill="green"/><!-- 2 -->
<rect x="170" y="130" width="10" height="10" fill="green"/><!-- 2 -->
<rect x="180" y="130" width="10" height="10" fill="green"/><!-- 2 -->
<rect x="190" y="130" width="10" height="10" fill="green"/><!-- 2 -->
<rect x="200" y="130" width="10" height="10" fill="green"/><!-- 2 -->
<rect x="210" y="130" width="10" height="10" fill="green"/><!-- 2 -->
<rect x="220" y="130" width="10" height="10" fill="green"/><!-- 2 -->
<rect x="230" y="130" width="10" height="10" fill="yellow"/><!-- 3 -->
<rect x="240" y="130" width="10" height="10" fill="black"/><!-- 0 -->
<rect x="250" y="130" width="10" height="10" fill="black"/><!-- 0 -->
<!-- blank -->

<!-- blank -->
<!-- blank -->
<!-- blank -->
<!-- blank -->
<rect x="50" y="140" width="10" height="10" fill="black"/><!-- 0 -->
<rect x="60" y="140" width="10" height="10" fill="yellow"/><!-- 3 -->
<rect x="70" y="140" width="10" height="10" fill="green"/><!-- 2 -->
<rect x="80" y="140" width="10" height="10" fill="green"/><!-- 2 -->
<rect x="90" y="140" width="10" height="10" fill="black"/><!-- 0 -->
<rect x="100" y="140" width="10" height="10" fill="black"/><!-- 0 -->
<rect x="110" y="140" width="10" height="10" fill="black"/><!-- 0 -->
<rect x="120" y="140" width="10" height="10" fill="black"/><!-- 0 -->
<rect x="130" y="140" width="10" height="10" fill="black"/><!-- 0 -->
<rect x="140" y="140" width="10" height="10" fill="black"/><!-- 0 -->
<rect x="150" y="140" width="10" height="10" fill="black"/><!-- 0 -->
<rect x="160" y="140" width="10" height="10" fill="black"/><!-- 0 -->
<rect x="170" y="140" width="10" height="10" fill="black"/><!-- 0 -->
<rect x="180" y="140" width="10" height="10" fill="black"/><!-- 0 -->
<rect x="190" y="140" width="10" height="10" fill="black"/><!-- 0 -->
<rect x="200" y="140" width="10" height="10" fill="black"/><!-- 0 -->
<rect x="210" y="140" width="10" height="10" fill="black"/><!-- 0 -->
<rect x="220" y="140" width="10" height="10" fill="green"/><!-- 2 -->
<rect x="230" y="140" width="10" height="10" fill="green"/><!-- 2 -->
<rect x="240" y="140" width="10" height="10" fill="green"/><!-- 2 -->
<rect x="250" y="140" width="10" height="10" fill="black"/><!-- 0 -->
<!-- blank -->

<!-- blank -->
<!-- blank -->
<!-- blank -->
<!-- blank -->
<rect x="50" y="150" width="10" height="10" fill="black"/><!-- 0 -->
<rect x="60" y="150" width="10" height="10" fill="green"/><!-- 2 -->
<rect x="70" y="150" width="10" height="10" fill="black"/><!-- 0 -->
<rect x="80" y="150" width="10" height="10" fill="black"/><!-- 0 -->
<rect x="90" y="150" width="10" height="10" fill="black"/><!-- 0 -->
<rect x="100" y="150" width="10" height="10" fill="green"/><!-- 2 -->
<rect x="110" y="150" width="10" height="10" fill="green"/><!-- 2 -->
<rect x="120" y="150" width="10" height="10" fill="yellow"/><!-- 3 -->
<rect x="130" y="150" width="10" height="10" fill="green"/><!-- 2 -->
<rect x="140" y="150" width="10" height="10" fill="green"/><!-- 2 -->
<rect x="150" y="150" width="10" height="10" fill="yellow"/><!-- 3 -->
<rect x="160" y="150" width="10" height="10" fill="green"/><!-- 2 -->
<rect x="170" y="150" width="10" height="10" fill="green"/><!-- 2 -->
<rect x="180" y="150" width="10" height="10" fill="yellow"/><!-- 3 -->
<rect x="190" y="150" width="10" height="10" fill="green"/><!-- 2 -->
<rect x="200" y="150" width="10" height="10" fill="black"/><!-- 0 -->
<rect x="210" y="150" width="10" height="10" fill="black"/><!-- 0 -->
<rect x="220" y="150" width="10" height="10" fill="black"/><!-- 0 -->
<rect x="230" y="150" width="10" height="10" fill="black"/><!-- 0 -->
<rect x="240" y="150" width="10" height="10" fill="black"/><!-- 0 -->
<rect x="250" y="150" width="10" height="10" fill="black"/><!-- 0 -->
<!-- blank -->

<!-- blank -->
<!-- blank -->
<!-- blank -->
<!-- blank -->
<rect x="50" y="160" width="10" height="10" fill="black"/><!-- 0 -->
<rect x="60" y="160" width="10" height="10" fill="black"/><!-- 0 -->
<rect x="70" y="160" width="10" height="10" fill="black"/><!-- 0 -->
<rect x="80" y="160" width="10" height="10" fill="black"/><!-- 0 -->
<rect x="90" y="160" width="10" height="10" fill="black"/><!-- 0 -->
<rect x="100" y="160" width="10" height="10" fill="black"/><!-- 0 -->
<rect x="110" y="160" width="10" height="10" fill="black"/><!-- 0 -->
<rect x="120" y="160" width="10" height="10" fill="black"/><!-- 0 -->
<rect x="130" y="160" width="10" height="10" fill="black"/><!-- 0 -->
<rect x="140" y="160" width="10" height="10" fill="black"/><!-- 0 -->
<rect x="150" y="160" width="10" height="10" fill="black"/><!-- 0 -->
<rect x="160" y="160" width="10" height="10" fill="black"/><!-- 0 -->
<rect x="170" y="160" width="10" height="10" fill="black"/><!-- 0 -->
<rect x="180" y="160" width="10" height="10" fill="black"/><!-- 0 -->
<rect x="190" y="160" width="10" height="10" fill="black"/><!-- 0 -->
<rect x="200" y="160" width="10" height="10" fill="black"/><!-- 0 -->
<rect x="210" y="160" width="10" height="10" fill="green"/><!-- 2 -->
<rect x="220" y="160" width="10" height="10" fill="black"/><!-- 0 -->
<rect x="230" y="160" width="10" height="10" fill="black"/><!-- 0 -->
<!-- blank -->
<!-- blank -->
<!-- blank -->

<!-- blank -->
<!-- blank -->
<!-- blank -->
<!-- blank -->
<!-- blank -->
<rect x="60" y="170" width="10" height="10" fill="black"/><!-- 0 -->
<rect x="70" y="170" width="10" height="10" fill="green"/><!-- 2 -->
<rect x="80" y="170" width="10" height="10" fill="black"/><!-- 0 -->
<rect x="90" y="170" width="10" height="10" fill="green"/><!-- 2 -->
<rect x="100" y="170" width="10" height="10" fill="black"/><!-- 0 -->
<rect x="110" y="170" width="10" height="10" fill="black"/><!-- 0 -->
<rect x="120" y="170" width="10" height="10" fill="black"/><!-- 0 -->
<rect x="130" y="170" width="10" height="10" fill="black"/><!-- 0 -->
<rect x="140" y="170" width="10" height="10" fill="black"/><!-- 0 -->
<rect x="150" y="170" width="10" height="10" fill="black"/><!-- 0 -->
<rect x="160" y="170" width="10" height="10" fill="black"/><!-- 0 -->
<rect x="170" y="170" width="10" height="10" fill="black"/><!-- 0 -->
<rect x="180" y="170" width="10" height="10" fill="black"/><!-- 0 -->
<rect x="190" y="170" width="10" height="10" fill="black"/><!-- 0 -->
<rect x="200" y="170" width="10" height="10" fill="black"/><!-- 0 -->
<rect x="210" y="170" width="10" height="10" fill="black"/><!-- 0 -->
<rect x="220" y="170" width="10" height="10" fill="black"/><!-- 0 -->
<rect x="230" y="170" width="10" height="10" fill="black"/><!-- 0 -->
<rect x="240" y="170" width="10" height="10" fill="black"/><!-- 0 -->
<!-- blank -->
<!-- blank -->

<!-- blank -->
<!-- blank -->
<!-- blank -->
<!-- blank -->
<!-- blank -->
<rect x="60" y="180" width="10" height="10" fill="black"/><!-- 0 -->
<rect x="70" y="180" width="10" height="10" fill="yellow"/><!-- 3 -->
<rect x="80" y="180" width="10" height="10" fill="black"/><!-- 0 -->
<rect x="90" y="180" width="10" height="10" fill="black"/><!-- 0 -->
<rect x="100" y="180" width="10" height="10" fill="black"/><!-- 0 -->
<rect x="110" y="180" width="10" height="10" fill="black"/><!-- 0 -->
<rect x="120" y="180" width="10" height="10" fill="green"/><!-- 2 -->
<rect x="130" y="180" width="10" height="10" fill="black"/><!-- 0 -->
<rect x="140" y="180" width="10" height="10" fill="black"/><!-- 0 -->
<rect x="150" y="180" width="10" height="10" fill="black"/><!-- 0 -->
<rect x="160" y="180" width="10" height="10" fill="green"/><!-- 2 -->
<rect x="170" y="180" width="10" height="10" fill="black"/><!-- 0 -->
<rect x="180" y="180" width="10" height="10" fill="black"/><!-- 0 -->
<rect x="190" y="180" width="10" height="10" fill="black"/><!-- 0 -->
<rect x="200" y="180" width="10" height="10" fill="green"/><!-- 2 -->
<rect x="210" y="180" width="10" height="10" fill="black"/><!-- 0 -->
<rect x="220" y="180" width="10" height="10" fill="black"/><!-- 0 -->
<rect x="230" y="180" width="10" height="10" fill="yellow"/><!-- 3 -->
<rect x="240" y="180" width="10" height="10" fill="black"/><!-- 0 -->
<!-- blank -->
<!-- blank -->

<!-- blank -->
<!-- blank -->
<!-- blank -->
<!-- blank -->
<!-- blank -->
<rect x="60" y="190" width="10" height="10" fill="black"/><!-- 0 -->
<rect x="70" y="190" width="10" height="10" fill="black"/><!-- 0 -->
<rect x="80" y="190" width="10" height="10" fill="green"/><!-- 2 -->
<rect x="90" y="190" width="10" height="10" fill="black"/><!-- 0 -->
<rect x="100" y="190" width="10" height="10" fill="black"/><!-- 0 -->
<rect x="110" y="190" width="10" height="10" fill="green"/><!-- 2 -->
<rect x="120" y="190" width="10" height="10" fill="green"/><!-- 2 -->
<rect x="130" y="190" width="10" height="10" fill="black"/><!-- 0 -->
<rect x="140" y="190" width="10" height="10" fill="black"/><!-- 0 -->
<rect x="150" y="190" width="10" height="10" fill="green"/><!-- 2 -->
<rect x="160" y="190" width="10" height="10" fill="green"/><!-- 2 -->
<rect x="170" y="190" width="10" height="10" fill="black"/><!-- 0 -->
<rect x="180" y="190" width="10" height="10" fill="black"/><!-- 0 -->
<rect x="190" y="190" width="10" height="10" fill="green"/><!-- 2 -->
<rect x="200" y="190" width="10" height="10" fill="green"/><!-- 2 -->
<rect x="210" y="190" width="10" height="10" fill="black"/><!-- 0 -->
<rect x="220" y="190" width="10" height="10" fill="black"/><!-- 0 -->
<rect x="230" y="190" width="10" height="10" fill="green"/><!-- 2 -->
<rect x="240" y="190" width="10" height="10" fill="black"/><!-- 0 -->
<!-- blank -->
<!-- blank -->

<!-- blank -->
<!-- blank -->
<!-- blank -->
<!-- blank -->
<!-- blank -->
<!-- blank -->
<rect x="70" y="200" width="10" height="10" fill="black"/><!-- 0 -->
<rect x="80" y="200" width="10" height="10" fill="black"/><!-- 0 -->
<rect x="90" y="200" width="10" height="10" fill="yellow"/><!-- 3 -->
<rect x="100" y="200" width="10" height="10" fill="black"/><!-- 0 -->
<rect x="110" y="200" width="10" height="10" fill="black"/><!-- 0 -->
<rect x="120" y="200" width="10" height="10" fill="black"/><!-- 0 -->
<rect x="130" y="200" width="10" height="10" fill="black"/><!-- 0 -->
<rect x="140" y="200" width="10" height="10" fill="black"/><!-- 0 -->
<rect x="150" y="200" width="10" height="10" fill="black"/><!-- 0 -->
<rect x="160" y="200" width="10" height="10" fill="black"/><!-- 0 -->
<rect x="170" y="200" width="10" height="10" fill="black"/><!-- 0 -->
<rect x="180" y="200" width="10" height="10" fill="black"/><!-- 0 -->
<rect x="190" y="200" width="10" height="10" fill="black"/><!-- 0 -->
<rect x="200" y="200" width="10" height="10" fill="black"/><!-- 0 -->
<rect x="210" y="200" width="10" height="10" fill="black"/><!-- 0 -->
<rect x="220" y="200" width="10" height="10" fill="green"/><!-- 2 -->
<rect x="230" y="200" width="10" height="10" fill="black"/><!-- 0 -->
<rect x="240" y="200" width="10" height="10" fill="black"/><!-- 0 -->
<!-- blank -->
<!-- blank -->

<!-- blank -->
<!-- blank -->
<!-- blank -->
<!-- blank -->
<!-- blank -->
<!-- blank -->
<!-- blank -->
<rect x="80" y="210" width="10" height="10" fill="black"/><!-- 0 -->
<rect x="90" y="210" width="10" height="10" fill="black"/><!-- 0 -->
<rect x="100" y="210" width="10" height="10" fill="black"/><!-- 0 -->
<rect x="110" y="210" width="10" height="10" fill="yellow"/><!-- 3 -->
<rect x="120" y="210" width="10" height="10" fill="green"/><!-- 2 -->
<rect x="130" y="210" width="10" height="10" fill="yellow"/><!-- 3 -->
<rect x="140" y="210" width="10" height="10" fill="yellow"/><!-- 3 -->
<rect x="150" y="210" width="10" height="10" fill="green"/><!-- 2 -->
<rect x="160" y="210" width="10" height="10" fill="yellow"/><!-- 3 -->
<rect x="170" y="210" width="10" height="10" fill="yellow"/><!-- 3 -->
<rect x="180" y="210" width="10" height="10" fill="green"/><!-- 2 -->
<rect x="190" y="210" width="10" height="10" fill="yellow"/><!-- 3 -->
<rect x="200" y="210" width="10" height="10" fill="yellow"/><!-- 3 -->
<rect x="210" y="210" width="10" height="10" fill="green"/><!-- 2 -->
<rect x="220" y="210" width="10" height="10" fill="black"/><!-- 0 -->
<rect x="230" y="210" width="10" height="10" fill="black"/><!-- 0 -->
<!-- blank -->
<!-- blank -->
<!-- blank -->

<!-- blank -->
<!-- blank -->
<!-- blank -->
<!-- blank -->
<!-- blank -->
<!-- blank -->
<!-- blank -->
<!-- blank -->
<!-- blank -->
<rect x="100" y="220" width="10" height="10" fill="black"/><!-- 0 -->
<rect x="110" y="220" width="10" height="10" fill="black"/><!-- 0 -->
<rect x="120" y="220" width="10" height="10" fill="black"/><!-- 0 -->
<rect x="130" y="220" width="10" height="10" fill="black"/><!-- 0 -->
<rect x="140" y="220" width="10" height="10" fill="black"/><!-- 0 -->
<rect x="150" y="220" width="10" height="10" fill="black"/><!-- 0 -->
<rect x="160" y="220" width="10" height="10" fill="black"/><!-- 0 -->
<rect x="170" y="220" width="10" height="10" fill="black"/><!-- 0 -->
<rect x="180" y="220" width="10" height="10" fill="black"/><!-- 0 -->
<rect x="190" y="220" width="10" height="10" fill="black"/><!-- 0 -->
<rect x="200" y="220" width="10" height="10" fill="black"/><!-- 0 -->
<rect x="210" y="220" width="10" height="10" fill="black"/><!-- 0 -->
<rect x="220" y="220" width="10" height="10" fill="black"/><!-- 0 -->
<!-- blank -->
<!-- blank -->
<!-- blank -->
<!-- blank -->

</svg>
